<?xml version="1.0" standalone="no"?>
<!DOCTYPE svg PUBLIC "-//W3C//DTD SVG 20010904//EN"
 "http://www.w3.org/TR/2001/REC-SVG-20010904/DTD/svg10.dtd">
<svg version="1.0" xmlns="http://www.w3.org/2000/svg"
 width="254.000000pt" height="254.000000pt" viewBox="0 0 254.000000 254.000000"
 preserveAspectRatio="xMidYMid meet">
<metadata>
Created by potrace 1.11, written by Peter Selinger 2001-2013
</metadata>
<g transform="translate(0.000000,254.000000) scale(0.100000,-0.100000)"
fill="#000000" stroke="none">
<path d="M1105 2524 c-274 -58 -491 -270 -542 -530 l-16 -81 -56 -18 c-229
-71 -412 -269 -468 -505 -31 -136 -11 -316 50 -450 83 -181 265 -329 465 -377
l71 -17 16 -50 c94 -290 355 -488 645 -489 162 -1 295 39 415 124 144 102 257
277 282 439 6 41 12 46 66 54 72 12 201 83 277 153 201 186 271 461 186 729
-72 224 -304 429 -521 458 -27 4 -52 10 -56 14 -3 4 -11 30 -17 57 -52 213
-236 402 -466 477 -76 24 -245 31 -331 12z m230 -424 c62 -30 156 -114 188
-169 l18 -30 -39 -25 c-65 -41 -161 -141 -247 -257 -26 -35 -51 -63 -55 -62
-15 4 -105 66 -133 92 -73 66 -124 184 -113 261 26 188 201 275 381 190z m634
-541 c87 -26 159 -117 166 -211 8 -101 -39 -203 -138 -300 -32 -32 -64 -58
-70 -58 -7 0 -25 24 -42 52 -39 67 -152 180 -242 243 -40 28 -72 53 -73 57 0
13 62 99 99 135 81 79 201 112 300 82z m-1228 -160 c63 -62 216 -183 242 -192
36 -12 -93 -178 -173 -221 -72 -39 -167 -47 -231 -19 -152 67 -206 216 -132
360 43 82 110 159 166 190 20 10 24 8 41 -20 11 -18 49 -62 87 -98z m676 -455
c170 -127 206 -300 91 -437 -101 -121 -262 -119 -403 5 -42 37 -92 105 -83
113 2 2 22 17 45 32 83 56 181 164 258 281 15 23 31 42 36 42 4 0 29 -16 56
-36z"/>
</g>
</svg>
